<!DOCTYPE svg PUBLIC "-//W3C//DTD SVG 1.1//EN" "http://www.w3.org/Graphics/SVG/1.1/DTD/svg11.dtd">

<!-- Uploaded to: SVG Repo, www.svgrepo.com, Transformed by: SVG Repo Mixer Tools -->
<svg fill="#1788ae" height="256px" width="256px" version="1.1" id="Capa_1" xmlns="http://www.w3.org/2000/svg" xmlns:xlink="http://www.w3.org/1999/xlink" viewBox="0 0 23.63 23.63" xml:space="preserve" stroke="#1788ae" transform="matrix(-1, 0, 0, -1, 0, 0)" stroke-width="0.00023631">

<g id="SVGRepo_bgCarrier" stroke-width="0"/>

<g id="SVGRepo_tracerCarrier" stroke-linecap="round" stroke-linejoin="round" stroke="#1595b6" stroke-width="1.276074"> <g> <g> <polygon points="0,0.663 9.401,0.663 15.882,7.146 15.882,14.127 5.307,3.608 5.274,22.969 0,22.969 "/> <polygon points="23.631,22.969 14.232,22.969 7.752,16.485 7.752,9.501 18.327,20.018 18.359,0.662 23.631,0.662 "/> </g> <g> </g> <g> </g> <g> </g> <g> </g> <g> </g> <g> </g> <g> </g> <g> </g> <g> </g> <g> </g> <g> </g> <g> </g> <g> </g> <g> </g> <g> </g> </g> </g>

<g id="SVGRepo_iconCarrier"> <g> <g> <polygon points="0,0.663 9.401,0.663 15.882,7.146 15.882,14.127 5.307,3.608 5.274,22.969 0,22.969 "/> <polygon points="23.631,22.969 14.232,22.969 7.752,16.485 7.752,9.501 18.327,20.018 18.359,0.662 23.631,0.662 "/> </g> <g> </g> <g> </g> <g> </g> <g> </g> <g> </g> <g> </g> <g> </g> <g> </g> <g> </g> <g> </g> <g> </g> <g> </g> <g> </g> <g> </g> <g> </g> </g> </g>

</svg>